<svg width="560" height="350" viewBox="0 0 560 350" fill="none" xmlns="http://www.w3.org/2000/svg">
<g clip-path="url(#clip0_91_54)">
<path d="M35.2267 73.3625C28.2596 73.3625 21.4488 71.2112 15.6558 67.1806C9.86282 63.15 5.34772 57.4212 2.68149 50.7185C0.0152632 44.0159 -0.682344 36.6405 0.676888 29.5251C2.03612 22.4096 5.39115 15.8737 10.3177 10.7437C15.2442 5.61374 21.5211 2.12019 28.3544 0.704836C35.1877 -0.710517 42.2706 0.0158935 48.7074 2.79221C55.1443 5.56852 60.6459 10.2701 64.5167 16.3022C68.3875 22.3344 70.4535 29.4264 70.4535 36.6812C70.4429 46.4063 66.7281 55.73 60.1241 62.6066C53.5201 69.4833 44.5662 73.3515 35.2267 73.3625ZM35.2267 1.5284C28.5499 1.5284 22.0229 3.59008 16.4713 7.45272C10.9197 11.3154 6.59268 16.8055 4.03755 23.2288C1.48241 29.6522 0.813874 36.7202 2.11647 43.5392C3.41907 50.3582 6.63429 56.6218 11.3556 61.5381C16.0768 66.4543 22.0921 69.8022 28.6407 71.1586C35.1893 72.515 41.9771 71.8189 48.1457 69.1582C54.3144 66.4976 59.5868 61.992 63.2963 56.2111C67.0058 50.4303 68.9857 43.6338 68.9857 36.6812C68.9755 27.3614 65.4156 18.4262 59.0867 11.8361C52.7579 5.24595 44.1771 1.53897 35.2267 1.5284Z" fill="#3F3D56"/>
<path d="M274.475 51.9651C270.991 51.9651 267.586 50.8894 264.689 48.8741C261.793 46.8589 259.535 43.9944 258.202 40.6431C256.869 37.2918 256.52 33.6042 257.2 30.0464C257.88 26.4887 259.557 23.2207 262.02 20.6557C264.484 18.0907 267.622 16.344 271.039 15.6363C274.455 14.9286 277.997 15.2918 281.215 16.68C284.434 18.0681 287.185 20.4189 289.12 23.435C291.055 26.4511 292.088 29.9971 292.088 33.6245C292.083 38.487 290.226 43.1488 286.924 46.5872C283.622 50.0255 279.145 51.9596 274.475 51.9651ZM274.475 16.8123C271.282 16.8123 268.16 17.7983 265.505 19.6456C262.85 21.493 260.78 24.1187 259.558 27.1907C258.336 30.2628 258.017 33.6432 258.64 36.9044C259.263 40.1657 260.8 43.1613 263.058 45.5125C265.316 47.8638 268.193 49.465 271.325 50.1137C274.457 50.7624 277.703 50.4294 280.654 49.157C283.604 47.8845 286.125 45.7296 287.9 42.9649C289.674 40.2001 290.621 36.9496 290.621 33.6245C290.616 29.1672 288.913 24.8938 285.886 21.742C282.859 18.5902 278.756 16.8173 274.475 16.8123Z" fill="#3F3D56"/>
<path d="M398.502 141.376C394.583 141.376 390.752 140.165 387.494 137.898C384.235 135.631 381.695 132.409 380.196 128.638C378.696 124.868 378.303 120.72 379.068 116.717C379.833 112.715 381.72 109.038 384.491 106.153C387.262 103.267 390.793 101.302 394.637 100.506C398.48 99.7095 402.464 100.118 406.085 101.68C409.706 103.241 412.801 105.886 414.978 109.279C417.155 112.672 418.317 116.662 418.317 120.742C418.311 126.213 416.222 131.457 412.507 135.325C408.792 139.194 403.756 141.369 398.502 141.376ZM398.502 101.638C394.874 101.638 391.326 102.758 388.309 104.857C385.292 106.957 382.94 109.94 381.552 113.431C380.163 116.922 379.8 120.764 380.508 124.47C381.216 128.176 382.963 131.58 385.529 134.252C388.095 136.923 391.364 138.743 394.923 139.48C398.482 140.217 402.171 139.839 405.523 138.393C408.876 136.947 411.741 134.498 413.757 131.356C415.774 128.215 416.85 124.521 416.85 120.742C416.844 115.677 414.909 110.821 411.47 107.24C408.03 103.658 403.367 101.643 398.502 101.638Z" fill="#3F3D56"/>
<path d="M559.266 350H394.141C393.946 350 393.76 349.919 393.622 349.776C393.484 349.633 393.407 349.438 393.407 349.236C393.407 349.033 393.484 348.839 393.622 348.695C393.76 348.552 393.946 348.472 394.141 348.472H559.266C559.461 348.472 559.648 348.552 559.785 348.695C559.923 348.839 560 349.033 560 349.236C560 349.438 559.923 349.633 559.785 349.776C559.648 349.919 559.461 350 559.266 350Z" fill="#CCCCCC"/>
<path d="M470.363 117.11C480.318 117.11 488.388 108.707 488.388 98.3408C488.388 87.9747 480.318 79.5714 470.363 79.5714C460.408 79.5714 452.338 87.9747 452.338 98.3408C452.338 108.707 460.408 117.11 470.363 117.11Z" fill="#FFB8B8"/>
<path d="M472.233 321.223L463.714 324.235L448.498 291.452L461.072 287.005L472.233 321.223Z" fill="#FFB8B8"/>
<path d="M456.802 323.853L473.232 318.042L476.746 328.814L449.97 338.284C449.509 336.869 449.32 335.374 449.413 333.883C449.507 332.392 449.882 330.935 450.516 329.595C451.15 328.255 452.032 327.059 453.11 326.073C454.189 325.088 455.443 324.334 456.802 323.853Z" fill="#2F2E41"/>
<path d="M491.482 339.741L482.496 340.211L476.478 304.343L489.74 303.649L491.482 339.741Z" fill="#FFB8B8"/>
<path d="M475.949 337.873L493.279 336.966L493.827 348.328L465.585 349.806C465.513 348.314 465.724 346.822 466.206 345.415C466.688 344.008 467.431 342.713 468.394 341.605C469.356 340.497 470.518 339.597 471.815 338.957C473.111 338.316 474.516 337.948 475.949 337.873Z" fill="#2F2E41"/>
<path d="M438.007 220.569C438.813 219.822 439.451 218.9 439.878 217.868C440.304 216.836 440.509 215.719 440.476 214.596C440.443 213.473 440.174 212.372 439.688 211.369C439.203 210.366 438.511 209.486 437.664 208.791L446.231 182.981L433.027 186.494L426.916 210.465C425.889 212.026 425.448 213.924 425.676 215.801C425.904 217.677 426.784 219.401 428.152 220.647C429.519 221.892 431.277 222.572 433.093 222.558C434.91 222.543 436.658 221.836 438.007 220.569Z" fill="#FFB8B8"/>
<path d="M490.642 328.927C490.526 328.926 490.41 328.92 490.294 328.907L478.096 327.562C477.347 327.484 476.646 327.139 476.112 326.586C475.578 326.033 475.243 325.306 475.162 324.526L465.736 237.018L458.915 260.964L471.632 308.025C471.761 308.505 471.789 309.008 471.714 309.499C471.639 309.991 471.462 310.46 471.195 310.873C470.929 311.286 470.579 311.635 470.171 311.894C469.763 312.153 469.305 312.316 468.83 312.373L456.466 313.853C455.678 313.944 454.886 313.738 454.231 313.274C453.577 312.809 453.103 312.116 452.897 311.32L439.387 258.359C439.275 257.924 439.248 257.47 439.305 257.023L445.377 209.491L490.668 213.273L493.943 325.382C493.957 325.843 493.881 326.301 493.721 326.73C493.562 327.16 493.321 327.551 493.013 327.882C492.705 328.212 492.337 328.475 491.929 328.655C491.522 328.834 491.084 328.926 490.642 328.927Z" fill="#2F2E41"/>
<path d="M474.986 221.401C459.812 221.401 442.633 215.296 441.592 214.921L441.292 214.812L458.409 123.351L458.724 123.364C465.508 123.651 484.021 123.798 484.207 123.799L484.539 123.802L491.675 204.515L492.95 216.321L492.794 216.452C488.429 220.127 481.917 221.401 474.986 221.401Z" fill="#99F285"/>
<path d="M447.573 213.497L436.866 209.006L442.323 140.271C442.455 138.577 442.95 136.935 443.772 135.466C444.595 133.998 445.723 132.74 447.075 131.786L452.709 127.794C452.55 127.229 452.521 126.633 452.626 126.055C452.73 125.477 452.965 124.933 453.311 124.467C453.656 124.002 454.103 123.629 454.615 123.378C455.126 123.127 455.687 123.006 456.252 123.025L457.865 123.079C458.172 122.864 458.534 122.75 458.904 122.753C459.274 122.756 459.634 122.875 459.938 123.095C460.242 123.315 460.475 123.625 460.606 123.985C460.737 124.345 460.761 124.738 460.674 125.113L460.32 132.395L447.573 213.497Z" fill="#2F2E41"/>
<path d="M442.17 201.174L428.191 200.561L432.72 170.229L436.472 141.687C436.546 140.662 436.841 139.668 437.336 138.779C437.831 137.889 438.512 137.128 439.329 136.551C440.146 135.975 441.078 135.598 442.054 135.449C443.031 135.3 444.027 135.383 444.969 135.691C446.435 136.171 447.693 137.172 448.521 138.52C449.35 139.868 449.696 141.476 449.5 143.064L445.699 173.988L442.17 201.174Z" fill="#2F2E41"/>
<path d="M464.306 214.548L464.211 214.241C464.146 214.032 457.846 192.988 468.388 167.876L473.674 140.499L478.192 123.308C478.277 123.001 478.429 122.719 478.637 122.483C478.845 122.248 479.102 122.067 479.389 121.953C479.726 121.832 480.091 121.816 480.436 121.909C480.782 122.001 481.094 122.198 481.333 122.473C484.482 121.511 487.867 121.863 490.77 123.456L497.115 126.936C498.525 127.71 499.65 128.949 500.311 130.46C500.973 131.97 501.134 133.667 500.771 135.283L492.099 173.816L496.315 209.807L464.306 214.548Z" fill="#2F2E41"/>
<path d="M473.539 199.712C474.611 199.833 475.696 199.708 476.717 199.346C477.739 198.983 478.671 198.392 479.449 197.613C480.227 196.835 480.831 195.888 481.22 194.84C481.608 193.792 481.772 192.668 481.698 191.548L501.334 176.401L494.47 173.012L473.296 184.37C471.496 184.623 469.848 185.556 468.664 186.99C467.481 188.425 466.843 190.262 466.873 192.153C466.903 194.044 467.598 195.858 468.826 197.251C470.055 198.645 471.732 199.52 473.539 199.712Z" fill="#FFB8B8"/>
<path d="M485.849 192.932L479.217 180.041L495.574 168.832L487.592 139.021C487.272 137.827 487.192 136.578 487.357 135.351C487.522 134.123 487.928 132.945 488.55 131.888C489.172 130.832 489.996 129.92 490.971 129.211C491.947 128.501 493.052 128.008 494.219 127.763C496.28 127.335 498.421 127.701 500.243 128.792C502.065 129.883 503.445 131.626 504.126 133.696L514.896 166.66C515.118 167.339 515.13 168.074 514.931 168.761C514.732 169.447 514.332 170.052 513.786 170.491L485.849 192.932Z" fill="#2F2E41"/>
<path d="M471.638 102.322C469.477 102.614 467.848 100.312 467.092 98.1844C466.336 96.0564 465.76 93.5789 463.881 92.4294C461.314 90.859 458.03 92.7478 455.095 92.2297C451.781 91.6445 449.626 87.9867 449.457 84.4904C449.288 80.9942 450.624 77.6315 451.935 74.408L452.393 78.4141C452.332 77.0563 452.606 75.7049 453.19 74.4891C453.774 73.2733 454.647 72.2338 455.727 71.47L455.137 77.3484C455.262 76.5374 455.541 75.7602 455.955 75.0613C456.37 74.3625 456.913 73.7559 457.554 73.2762C458.194 72.7966 458.919 72.4533 459.687 72.2662C460.456 72.0791 461.252 72.0518 462.03 72.1858L461.937 75.6884C465.765 75.2143 469.627 74.7396 473.467 75.1008C477.307 75.4619 481.173 76.7269 484.083 79.3601C488.436 83.2988 490.026 89.7844 489.492 95.7637C488.959 101.743 486.588 107.36 484.118 112.786C483.496 114.151 482.637 115.692 481.195 115.866C479.9 116.022 478.715 114.895 478.313 113.604C478.002 112.279 478.014 110.894 478.348 109.576C478.712 107.56 479.171 105.5 478.828 103.481C478.486 101.461 477.091 99.4655 475.136 99.218C473.181 98.9705 471.18 101.298 472.12 103.1L471.638 102.322Z" fill="#2F2E41"/>
<path d="M235.806 308.41L228.79 305.334L223.976 268.708H159.878L154.661 305.184L148.384 308.453C148.083 308.609 147.843 308.866 147.7 309.183C147.558 309.5 147.523 309.857 147.6 310.198C147.677 310.538 147.862 310.841 148.125 311.058C148.389 311.275 148.715 311.393 149.051 311.393H235.228C235.572 311.393 235.906 311.269 236.172 311.042C236.438 310.815 236.621 310.499 236.689 310.148C236.757 309.797 236.707 309.432 236.546 309.115C236.385 308.798 236.123 308.549 235.806 308.41Z" fill="#E6E6E6"/>
<path d="M349.713 273.581H34.8459C33.1939 273.577 31.6108 272.891 30.444 271.673C29.2771 270.455 28.6218 268.805 28.6218 267.085V220.852H355.937V267.085C355.937 268.805 355.281 270.455 354.115 271.673C352.948 272.891 351.365 273.577 349.713 273.581Z" fill="#CCCCCC"/>
<path d="M356.266 242.703H28.3342V44.8788C28.3365 42.8027 29.1296 40.8124 30.5394 39.3444C31.9492 37.8764 33.8607 37.0507 35.8544 37.0484H348.746C350.739 37.0507 352.651 37.8765 354.061 39.3444C355.47 40.8124 356.263 42.8027 356.266 44.8788V242.703Z" fill="#3F3D56"/>
<path d="M336.68 228.345H47.9205C46.3835 228.343 44.9099 227.706 43.823 226.575C42.7361 225.443 42.1248 223.908 42.123 222.308V57.4432C42.1248 55.8426 42.7361 54.3082 43.823 53.1764C44.9098 52.0446 46.3834 51.408 47.9205 51.4061H336.68C338.217 51.408 339.691 52.0446 340.777 53.1764C341.864 54.3082 342.476 55.8426 342.477 57.4432V222.308C342.476 223.908 341.864 225.443 340.777 226.575C339.691 227.706 338.217 228.343 336.68 228.345Z" fill="white"/>
<path d="M333.962 311.775H54.3496C54.155 311.775 53.9683 311.695 53.8307 311.551C53.693 311.408 53.6157 311.214 53.6157 311.011C53.6157 310.808 53.693 310.614 53.8307 310.471C53.9683 310.327 54.155 310.247 54.3496 310.247H333.962C334.156 310.247 334.343 310.327 334.481 310.471C334.618 310.614 334.696 310.808 334.696 311.011C334.696 311.214 334.618 311.408 334.481 311.551C334.343 311.695 334.156 311.775 333.962 311.775Z" fill="#919191"/>
<path d="M309.552 207.86H75.0481C74.8535 207.86 74.6668 207.78 74.5291 207.636C74.3915 207.493 74.3142 207.299 74.3142 207.096V90.0575C74.3142 89.8549 74.3915 89.6605 74.5291 89.5172C74.6668 89.3739 74.8535 89.2933 75.0481 89.2933C75.2427 89.2933 75.4294 89.3739 75.567 89.5172C75.7047 89.6605 75.782 89.8549 75.782 90.0575V206.332H309.552C309.747 206.332 309.933 206.412 310.071 206.556C310.209 206.699 310.286 206.893 310.286 207.096C310.286 207.299 310.209 207.493 310.071 207.636C309.933 207.78 309.747 207.86 309.552 207.86Z" fill="#3F3D56"/>
<path d="M125.151 199.454H103.822C103.245 199.453 102.691 199.214 102.283 198.789C101.874 198.364 101.644 197.787 101.644 197.186V166.57C101.644 165.968 101.874 165.392 102.283 164.966C102.691 164.541 103.245 164.302 103.822 164.301H125.151C125.729 164.302 126.283 164.541 126.691 164.966C127.1 165.392 127.329 165.968 127.33 166.57V197.186C127.329 197.787 127.1 198.364 126.691 198.789C126.283 199.214 125.729 199.453 125.151 199.454Z" fill="#99F285"/>
<path d="M164.048 199.454H142.719C142.141 199.453 141.587 199.214 141.179 198.789C140.77 198.364 140.541 197.787 140.54 197.186V137.53C140.541 136.929 140.77 136.352 141.179 135.927C141.587 135.502 142.141 135.263 142.719 135.262H164.048C164.625 135.263 165.179 135.502 165.587 135.927C165.996 136.352 166.226 136.929 166.226 137.53V197.186C166.226 197.787 165.996 198.364 165.587 198.789C165.179 199.214 164.625 199.453 164.048 199.454Z" fill="#99F285"/>
<path d="M202.944 199.454H181.615C181.037 199.453 180.484 199.214 180.075 198.789C179.667 198.364 179.437 197.787 179.436 197.186V166.57C179.437 165.968 179.667 165.392 180.075 164.966C180.484 164.541 181.037 164.302 181.615 164.301H202.944C203.521 164.302 204.075 164.541 204.484 164.966C204.892 165.392 205.122 165.968 205.122 166.57V197.186C205.122 197.787 204.892 198.364 204.484 198.789C204.075 199.214 203.521 199.453 202.944 199.454Z" fill="#99F285"/>
<path d="M241.84 199.454H220.511C219.947 199.467 219.4 199.246 218.992 198.84C218.584 198.434 218.347 197.876 218.333 197.289V125.965C218.347 125.377 218.584 124.819 218.992 124.413C219.4 124.007 219.947 123.786 220.511 123.799H241.84C242.405 123.786 242.951 124.007 243.359 124.413C243.767 124.819 244.005 125.377 244.019 125.965V197.289C244.005 197.876 243.767 198.434 243.359 198.84C242.951 199.246 242.405 199.467 241.84 199.454Z" fill="#99F285"/>
<path d="M280.736 199.454H259.407C258.83 199.453 258.276 199.214 257.867 198.789C257.459 198.364 257.229 197.787 257.229 197.186V105.434C257.229 104.833 257.459 104.256 257.867 103.831C258.276 103.406 258.83 103.167 259.407 103.166H280.736C281.314 103.167 281.867 103.406 282.276 103.831C282.684 104.256 282.914 104.833 282.915 105.434V197.186C282.914 197.787 282.684 198.364 282.276 198.789C281.867 199.214 281.314 199.453 280.736 199.454Z" fill="#99F285"/>
<path d="M114.487 155.131C116.919 155.131 118.89 153.078 118.89 150.546C118.89 148.014 116.919 145.961 114.487 145.961C112.055 145.961 110.083 148.014 110.083 150.546C110.083 153.078 112.055 155.131 114.487 155.131Z" fill="#3F3D56"/>
<path d="M153.383 125.328C155.815 125.328 157.786 123.275 157.786 120.742C157.786 118.21 155.815 116.157 153.383 116.157C150.951 116.157 148.98 118.21 148.98 120.742C148.98 123.275 150.951 125.328 153.383 125.328Z" fill="#3F3D56"/>
<path d="M192.279 155.131C194.711 155.131 196.683 153.078 196.683 150.546C196.683 148.014 194.711 145.961 192.279 145.961C189.847 145.961 187.876 148.014 187.876 150.546C187.876 153.078 189.847 155.131 192.279 155.131Z" fill="#3F3D56"/>
<path d="M231.175 110.808C233.607 110.808 235.579 108.755 235.579 106.223C235.579 103.69 233.607 101.638 231.175 101.638C228.743 101.638 226.772 103.69 226.772 106.223C226.772 108.755 228.743 110.808 231.175 110.808Z" fill="#3F3D56"/>
<path d="M270.072 93.9956C272.503 93.9956 274.475 91.9428 274.475 89.4105C274.475 86.8782 272.503 84.8253 270.072 84.8253C267.64 84.8253 265.668 86.8782 265.668 89.4105C265.668 91.9428 267.64 93.9956 270.072 93.9956Z" fill="#3F3D56"/>
<path d="M192.372 151.573L153.383 121.164L114.927 151.157L114.046 149.935L153.383 119.254L192.187 149.519L230.746 105.579L230.901 105.514L269.797 89.195L270.346 90.6126L231.605 106.866L192.372 151.573Z" fill="#3F3D56"/>
</g>
<defs>
<clipPath id="clip0_91_54">
<rect width="560" height="350" fill="white"/>
</clipPath>
</defs>
</svg>
